<?xml version="1.0" standalone="no"?>
<!DOCTYPE svg PUBLIC "-//W3C//DTD SVG 20010904//EN"
 "http://www.w3.org/TR/2001/REC-SVG-20010904/DTD/svg10.dtd">
<svg version="1.0" xmlns="http://www.w3.org/2000/svg"
 width="512.000000pt" height="512.000000pt" viewBox="0 0 512.000000 512.000000"
 preserveAspectRatio="xMidYMid meet">
<metadata>
Created by potrace 1.13, written by Peter Selinger 2001-2015
</metadata>
<g transform="translate(0.000000,512.000000) scale(0.100000,-0.100000)"
fill="#000000" stroke="none">
<path d="M2285 4898 c-338 -38 -729 -182 -1020 -376 -570 -380 -936 -961
-1037 -1647 -20 -136 -17 -512 5 -655 103 -665 471 -1245 1027 -1616 287 -191
623 -320 966 -371 164 -24 504 -24 668 0 411 61 815 237 1136 494 459 368 764
897 857 1485 25 159 25 537 0 696 -83 524 -329 995 -708 1356 -370 352 -861
581 -1361 635 -114 13 -419 12 -533 -1z m605 -733 c0 -196 2 -225 15 -225 33
0 199 -72 266 -115 208 -135 341 -352 366 -602 l6 -53 -228 2 -229 3 -12 71
c-15 94 -43 153 -99 213 -83 89 -211 131 -400 131 -298 0 -498 -119 -535 -317
-6 -35 -6 -71 0 -105 32 -166 184 -265 575 -373 487 -135 721 -264 858 -474
93 -142 121 -241 122 -426 0 -117 -3 -139 -29 -219 -35 -107 -103 -214 -178
-281 -106 -94 -269 -176 -423 -212 l-75 -17 0 -218 0 -218 -310 0 -310 0 0
220 0 220 -27 6 c-235 55 -445 183 -568 346 -68 91 -127 228 -140 325 -3 26
-9 60 -11 75 l-6 28 230 0 229 0 12 -58 c29 -151 133 -267 283 -319 166 -57
444 -56 608 2 176 62 270 211 239 379 -36 199 -202 315 -599 420 -335 88 -487
150 -645 262 -204 144 -300 312 -312 549 -13 245 98 456 320 609 81 55 260
132 355 151 l32 7 0 219 0 219 310 0 310 0 0 -225z"/>
</g>
</svg>
